<svg width="30" height="31" viewBox="0 0 30 31" fill="none" xmlns="http://www.w3.org/2000/svg">
<path fill-rule="evenodd" clip-rule="evenodd" d="M17.7643 0.25962C18.0502 0.51924 18.0918 0.948611 18.1749 1.80735L18.2573 2.65842C18.4186 4.32604 18.4993 5.15985 19.0597 5.38773C19.6201 5.61561 20.2598 5.07477 21.5392 3.99307L22.0572 3.55516C22.7341 2.98283 23.0726 2.69667 23.4668 2.71639C23.861 2.7361 24.1692 3.0546 24.7856 3.6916L24.7857 3.69161L26.5096 5.47298C27.09 6.07277 27.3802 6.37266 27.3989 6.74823C27.4175 7.1238 27.1585 7.45099 26.6404 8.10535L26.0129 8.89785C25.0141 10.1593 24.5146 10.7901 24.7446 11.3354C24.9746 11.8807 25.7748 11.9634 27.3753 12.1288L28.2056 12.2146C29.0586 12.3027 29.4851 12.3468 29.7426 12.6322C30 12.9176 30 13.3464 30 14.204V16.796C30 17.6536 30 18.0824 29.7426 18.3678C29.4851 18.6532 29.0586 18.6973 28.2056 18.7854L27.3759 18.8712C25.7754 19.0365 24.9751 19.1192 24.7452 19.6646C24.5152 20.2099 25.0146 20.8406 26.0134 22.1021L26.6404 22.894C27.1586 23.5483 27.4176 23.8755 27.399 24.2511C27.3803 24.6267 27.0901 24.9265 26.5096 25.5263L24.7857 27.3077C24.1693 27.9447 23.861 28.2632 23.4669 28.2829C23.0727 28.3026 22.7342 28.0165 22.0573 27.4442L21.5393 27.0062C20.2599 25.9245 19.6202 25.3837 19.0598 25.6116C18.4994 25.8395 18.4187 26.6733 18.2573 28.3409L18.1749 29.1926C18.0918 30.0514 18.0502 30.4808 17.7643 30.7404C17.4783 31 17.047 31 16.1842 31H13.8158C12.953 31 12.5217 31 12.2357 30.7404C11.9498 30.4808 11.9082 30.0514 11.8251 29.1926L11.7427 28.3415C11.5813 26.6739 11.5007 25.8401 10.9403 25.6122C10.3799 25.3843 9.74019 25.9252 8.46076 27.0069L7.94269 27.4449C7.26575 28.0172 6.92728 28.3033 6.53309 28.2836C6.13891 28.2639 5.83068 27.9454 5.21422 27.3084L3.49031 25.527C2.90988 24.9272 2.61966 24.6274 2.601 24.2518C2.58234 23.8762 2.8414 23.549 3.35951 22.8947L3.98703 22.1021C4.98585 20.8407 5.48526 20.2099 5.2553 19.6646C5.02535 19.1193 4.2251 19.0366 2.6246 18.8712L1.79443 18.7854C0.941398 18.6973 0.514883 18.6532 0.257442 18.3678C0 18.0824 0 17.6536 0 16.796V14.204C0 13.3464 0 12.9176 0.257442 12.6322C0.514883 12.3468 0.941398 12.3027 1.79443 12.2146L2.62516 12.1287C4.22566 11.9633 5.02591 11.8807 5.25587 11.3353C5.48582 10.79 4.98641 10.1593 3.98759 8.8978L3.35958 8.10465C2.84146 7.45028 2.5824 7.1231 2.60107 6.74753C2.61973 6.37195 2.90994 6.07206 3.49038 5.47228L5.21429 3.69091C5.83074 3.0539 6.13897 2.7354 6.53316 2.71568C6.92734 2.69597 7.26581 2.98213 7.94275 3.55445L8.46083 3.99246C9.74026 5.07416 10.38 5.61501 10.9403 5.38712C11.5007 5.15924 11.5814 4.32543 11.7428 2.65781L11.8251 1.80735C11.9082 0.948612 11.9498 0.519241 12.2357 0.25962C12.5217 0 12.953 0 13.8158 0H16.1842C17.047 0 17.4783 0 17.7643 0.25962ZM15 21.7C18.3137 21.7 21 18.9242 21 15.5C21 12.0758 18.3137 9.3 15 9.3C11.6863 9.3 9 12.0758 9 15.5C9 18.9242 11.6863 21.7 15 21.7Z" fill="#222222"/>
</svg>
