<svg width="30" height="31" viewBox="0 0 30 31" fill="none" xmlns="http://www.w3.org/2000/svg">
<path d="M8.14797 8.80426C8.48945 5.27564 11.4549 2.58333 15 2.58333C18.5451 2.58333 21.5105 5.27564 21.852 8.80427L22.2362 12.774C22.3124 13.5614 22.3505 13.955 22.4258 14.3383C22.5707 15.0757 22.8188 15.7889 23.1627 16.457C23.3415 16.8043 23.5559 17.1366 23.9847 17.8013L25.5102 20.1657C26.3881 21.5265 26.8271 22.2069 26.5429 22.7285C26.2587 23.25 25.449 23.25 23.8296 23.25H6.17043C4.55101 23.25 3.74129 23.25 3.45711 22.7285C3.17294 22.2069 3.61191 21.5265 4.48984 20.1657L6.01527 17.8013C6.4441 17.1366 6.65851 16.8043 6.83731 16.457C7.18121 15.7889 7.42927 15.0757 7.57417 14.3383C7.64951 13.955 7.68761 13.5614 7.7638 12.774L8.14797 8.80426Z" fill="#222222"/>
<path d="M12.5852 26.6463C12.7276 26.7836 13.0415 26.905 13.4781 26.9915C13.9147 27.0781 14.4497 27.125 15 27.125C15.5503 27.125 16.0853 27.0781 16.5219 26.9915C16.9585 26.905 17.2724 26.7836 17.4148 26.6463" stroke="#222222" stroke-width="2" stroke-linecap="round"/>
</svg>
